<?xml version="1.0" encoding="UTF-8" standalone="no"?>
<svg
   xmlns:dc="http://purl.org/dc/elements/1.1/"
   xmlns:cc="http://creativecommons.org/ns#"
   xmlns:rdf="http://www.w3.org/1999/02/22-rdf-syntax-ns#"
   xmlns:svg="http://www.w3.org/2000/svg"
   xmlns="http://www.w3.org/2000/svg"
   xmlns:sodipodi="http://sodipodi.sourceforge.net/DTD/sodipodi-0.dtd"
   xmlns:inkscape="http://www.inkscape.org/namespaces/inkscape"
   id="svg8"
   version="1.1"
   viewBox="0 0 70.966606 51.546585"
   height="51.546585mm"
   width="70.966606mm"
   sodipodi:docname="check.svg"
   inkscape:version="0.92.4 (33fec40, 2019-01-16)">
  <sodipodi:namedview
     pagecolor="#ffffff"
     bordercolor="#666666"
     borderopacity="1"
     objecttolerance="10"
     gridtolerance="10"
     guidetolerance="10"
     inkscape:pageopacity="0"
     inkscape:pageshadow="2"
     inkscape:window-width="1366"
     inkscape:window-height="704"
     id="namedview8"
     showgrid="false"
     inkscape:zoom="0.84096521"
     inkscape:cx="323.04618"
     inkscape:cy="-39.782747"
     inkscape:window-x="0"
     inkscape:window-y="27"
     inkscape:window-maximized="1"
     inkscape:current-layer="svg8" />
  <defs
     id="defs2" />
  <metadata
     id="metadata5">
    <rdf:RDF>
      <cc:Work
         rdf:about="">
        <dc:format>image/svg+xml</dc:format>
        <dc:type
           rdf:resource="http://purl.org/dc/dcmitype/StillImage" />
        <dc:title />
      </cc:Work>
    </rdf:RDF>
  </metadata>
  <g
     id="layer1"
     transform="translate(-61.801321,-105.4139)">
    <path
       id="path3988"
       d="m 61.988093,130.12351 25.702382,26.64732 44.883995,-45.6858 -6.38645,-5.49016 L 88.036025,144.39211 68.41369,123.8869 Z"
       style="fill:none;stroke:#000000;stroke-width:0.26458332px;stroke-linecap:butt;stroke-linejoin:miter;stroke-opacity:1"
       inkscape:connector-curvature="0" />
    <path
       transform="scale(0.26458333)"
       id="path3990"
       d="m 284.13743,542.34955 c -25.78842,-26.75087 -47.28556,-49.09921 -47.77142,-49.66296 -0.86456,-1.00316 -0.63734,-1.26314 10.65844,-12.19554 l 11.54183,-11.17054 36.98497,38.63891 c 20.34174,21.2514 37.15218,38.56914 37.35654,38.48387 0.20437,-0.0853 32.71116,-33.04522 72.23731,-73.24434 l 71.86574,-73.08931 11.18657,9.65056 c 6.15261,5.3078 11.256,9.82528 11.34086,10.03883 0.17935,0.45135 -167.47363,171.18848 -168.09617,171.18848 -0.22915,0 -21.51624,-21.88708 -47.30467,-48.63796 z"
       style="stroke-width:0.50507629"
       inkscape:connector-curvature="0" />
  </g>
</svg>
